<svg version="1" xmlns="http://www.w3.org/2000/svg" width="400" height="400" viewBox="0 0 300.000000 300.000000"><path d="M133 1.1C49.7 10.4-10.3 87.8 1.5 170.9c12.5 88 98.4 146 184.5 124.5 71.6-17.8 120-85.4 113.2-158.2-3.4-36.3-17.3-66.4-42.5-92.1C224.3 12 179.1-4 133 1.1zm89.2 87.7c12.8 6.3 19 16.8 19.2 32.2 0 7.3-.3 9.4-2.8 14.7-3 6.5-8.8 12.8-14.7 15.8-5.3 2.8-17.4 4.4-32.6 4.5H177v55h-16V84.8l27.3.3 27.2.4 6.7 3.3zM103 126.3c3.5 1.7 7 7.4 7 11.2 0 5.7-6.5 11.5-12.7 11.5-4 0-9.1-3.4-11-7.5-1.5-3.2-1.6-4-.3-7.8 2.5-7.1 10.5-10.7 17-7.4zm1.1 65c6 4 7.4 9.7 3.9 15.5-2.4 3.9-8.1 6.6-12.3 5.8-7.4-1.5-11.9-8.4-9.7-15.1 2.6-7.9 11.2-10.9 18.1-6.2z"/><path d="M177 120.5v21.8l16.8-.5c20.5-.6 24.4-1.9 28.8-9.4 2.4-4.1 2.9-6 2.8-11.4-.1-7.1-1.6-10.9-6.1-15.2-5.1-4.8-9.3-5.9-26.4-6.5l-15.9-.6v21.8z"/></svg>